<svg width="38" height="49" viewBox="0 0 38 49" fill="none" xmlns="http://www.w3.org/2000/svg">
<path d="M37.5325 24.6516L30.0692 24.6397V29.9973H30.0632V37.4485H30.0692V37.5408C30.0692 39.6046 28.3827 41.2783 26.303 41.2783C24.2234 41.2783 22.5369 39.6046 22.5369 37.5408V27.0341V22.2572V11.7504C22.5369 9.68659 24.2234 8.01289 26.303 8.01289C28.3827 8.01289 30.0692 9.68659 30.0692 11.7504V11.8547H30.0632V19.3059L30.0692 20.914H37.5325V12.0542C37.5355 11.9529 37.5385 11.8517 37.5385 11.7504C37.5385 5.5917 32.5059 0.597412 26.3 0.597412C23.4041 0.597412 20.7633 1.68442 18.7707 3.47128C18.7707 3.47128 18.7707 3.47128 18.7677 3.46831C17.3933 4.70124 16.325 6.26773 15.6978 8.0397L15.6948 8.04863C15.6948 8.04863 15.8959 5.13307 18.2786 3.06031C16.352 1.52062 13.9062 0.597412 11.2384 0.597412C5.03254 0.597412 0 5.5917 0 11.7504C0 11.7862 0.00300098 11.8189 0.00300098 11.8547H0V20.914H7.47228V11.8547V11.7504C7.47228 9.68659 9.1588 8.01289 11.2384 8.01289C13.3181 8.01289 15.0046 9.68659 15.0046 11.7504V37.5438C15.0046 39.6076 13.3181 41.2813 11.2384 41.2813C9.1588 41.2813 7.47228 39.6076 7.47228 37.5438V37.4515L7.48729 32.207H11.2534V24.6516H0V30.0003V37.4515H0.00300098C0.00300098 37.4813 0 37.511 0 37.5438C0 43.7025 5.03254 48.6968 11.2384 48.6968C13.9062 48.6968 16.355 47.7736 18.2816 46.2309C15.8929 44.1582 15.6918 41.2396 15.6918 41.2396L15.6978 41.2456C16.34 43.0592 17.4413 44.6585 18.8668 45.9063C18.9178 45.951 18.9718 45.9986 19.0258 46.0433C19.0858 46.0939 19.1458 46.1446 19.2059 46.1952C21.1415 47.7617 23.6082 48.6998 26.3 48.6998C32.5059 48.6998 37.5385 43.7055 37.5385 37.5468C37.5385 37.4455 37.5325 37.3443 37.5325 37.243V24.6516Z" fill="#724B0C"/>
</svg>
